<svg xmlns="http://www.w3.org/2000/svg" width="450" height="66.45" viewBox="0 0 450 66.45"><path d="M143.64,258.74a.33.33,0,0,1,.24-.56h1.33c10.82-1.1,19.87-8.09,19.87-20.5,0-14.29-11.54-20.9-24.75-20.9H78.45a1.51,1.51,0,0,0-1.51,1.51v63.43a1.51,1.51,0,0,0,1.51,1.51H98.21a1.51,1.51,0,0,0,1.51-1.51V261.46a1.5,1.5,0,0,1,1.51-1.5h12.84a6.23,6.23,0,0,1,4.66,2.09L137,282.71l1.13.51h26.08a1.5,1.5,0,0,0,1.07-2.56l-21.66-21.92Zm-8.24-13.67H101.22a1.51,1.51,0,0,1-1.51-1.51V234a1.51,1.51,0,0,1,1.51-1.51h33.69c4.83,0,8,2.37,8,6.11,0,4.34-3,6.51-7.5,6.51Z" transform="translate(-25 -216.77)" fill="#336aea"/><path d="M393.41,216.78H373.65a1.51,1.51,0,0,0-1.51,1.51v42.1a1.51,1.51,0,0,0,1.51,1.51h19.76a1.5,1.5,0,0,0,1.5-1.51v-42.1A1.5,1.5,0,0,0,393.41,216.78Z" transform="translate(-25 -216.77)" fill="#336aea"/><path d="M393.41,270.87H373.65a1.51,1.51,0,0,0-1.51,1.51v9.34a1.52,1.52,0,0,0,1.51,1.51h19.76a1.51,1.51,0,0,0,1.5-1.51v-9.34A1.5,1.5,0,0,0,393.41,270.87Z" transform="translate(-25 -216.77)" fill="#336aea"/><path d="M474.78,281.24l-25.43-33.67a1.94,1.94,0,0,1,.12-2.49l24-26.34a1.17,1.17,0,0,0-.87-2H451.83a1.93,1.93,0,0,0-1.44.64L427.21,242.9h0a.44.44,0,0,1-.31.15h-.83a.39.39,0,0,1-.4-.4V218.17a1.39,1.39,0,0,0-1.39-1.39h-19a1.39,1.39,0,0,0-1.39,1.39v63.59a1.27,1.27,0,0,0,1.27,1.27h19.22a1.27,1.27,0,0,0,1.27-1.27V269.92a2,2,0,0,1,.53-1.34l8.43-9a.31.31,0,0,1,.25-.12H436a.29.29,0,0,1,.22.12l17,22.68a2,2,0,0,0,1.57.79h19.09a1.12,1.12,0,0,0,.89-1.8Z" transform="translate(-25 -216.77)" fill="#336aea"/><path d="M195.81,232h19.33a1.51,1.51,0,0,0,1.51-1.51V218.28a1.52,1.52,0,0,0-1.51-1.51h-40a1.51,1.51,0,0,0-1.51,1.51v63.43a1.51,1.51,0,0,0,1.51,1.51h40a1.51,1.51,0,0,0,1.51-1.51V269.54a1.52,1.52,0,0,0-1.51-1.51H195.67a1.5,1.5,0,0,1-1.5-1.51v-7.89a1.64,1.64,0,0,1,1.64-1.64h19.33a1.52,1.52,0,0,0,1.51-1.51V243.6a1.51,1.51,0,0,0-1.51-1.5H195.81a1.65,1.65,0,0,1-1.64-1.65v-6.87a1.64,1.64,0,0,1,1.64-1.64Z" transform="translate(-25 -216.77)" fill="#336aea"/><path d="M247.76,232h19.33a1.5,1.5,0,0,0,1.5-1.51V218.28a1.51,1.51,0,0,0-1.5-1.51h-40a1.51,1.51,0,0,0-1.5,1.51v63.43a1.51,1.51,0,0,0,1.5,1.51h40a1.5,1.5,0,0,0,1.5-1.51V269.54a1.51,1.51,0,0,0-1.5-1.51H247.62a1.5,1.5,0,0,1-1.5-1.51v-7.89a1.64,1.64,0,0,1,1.64-1.64h19.33a1.51,1.51,0,0,0,1.5-1.51V243.6a1.5,1.5,0,0,0-1.5-1.5H247.76a1.65,1.65,0,0,1-1.64-1.65v-6.87a1.64,1.64,0,0,1,1.64-1.64Z" transform="translate(-25 -216.77)" fill="#336aea"/><path d="M47.16,232H66.48A1.51,1.51,0,0,0,68,230.45V218.28a1.51,1.51,0,0,0-1.51-1.51h-40A1.51,1.51,0,0,0,25,218.28v63.43a1.51,1.51,0,0,0,1.51,1.51H44a1.51,1.51,0,0,0,1.51-1.51V258.64A1.65,1.65,0,0,1,47.16,257H66.49a1.5,1.5,0,0,0,1.5-1.51V243.61a1.51,1.51,0,0,0-1.5-1.51H47.16a1.65,1.65,0,0,1-1.65-1.64v-6.87a1.65,1.65,0,0,1,1.65-1.65Z" transform="translate(-25 -216.77)" fill="#336aea"/><path d="M338.9,216.78H279.07a1.51,1.51,0,0,0-1.51,1.51v63.43a1.51,1.51,0,0,0,1.51,1.51h19.76a1.51,1.51,0,0,0,1.51-1.51v-21a.76.76,0,0,1,.77-.76H339c15.19,0,26.7-7.92,26.7-21.9s-11.51-21.28-26.8-21.28ZM336,245.07H301.84a1.51,1.51,0,0,1-1.51-1.51V234a1.5,1.5,0,0,1,1.51-1.5h33.69c4.83,0,8,2.36,8,6.11C343.52,242.91,340.56,245.07,336,245.07Z" transform="translate(-25 -216.77)" fill="#336aea"/></svg>